<?xml version="1.0" encoding="UTF-8"?><svg xmlns="http://www.w3.org/2000/svg" viewBox="0 0 41.89 129.64"><defs><style>.c{fill:#fc0;}</style></defs><g id="a"><path class="c" d="M20.25,98.35v.05c.01-.13.03-.27.05-.4,0,.04-.02.07-.03.1l.15-.36c-.02.05-.05.09-.08.14l.23-.3c-.06.07-.13.13-.2.19l.3-.23c-.43.31-.84.58-1.11,1.05-.22.38-.37.83-.5,1.25s-.26.89-.26,1.32c0,.29.08.59.23.84.16.28.34.41.6.59.14.1.29.2.43.3.29.2.82.26,1.16.15.37-.12.7-.35.9-.69.22-.38.44-.76.71-1.1l-.23.3c.1-.13.21-.25.34-.35l-.3.23c.25-.19.54-.36.74-.6.28-.34.48-.7.58-1.12.14-.59.21-1.21.28-1.8.04-.36-.2-.82-.44-1.06-.26-.26-.69-.46-1.06-.44s-.79.14-1.06.44l-.23.3c-.14.23-.2.49-.2.76-.01.09-.02.19-.04.28l.05-.4c-.06.45-.1.95-.27,1.38l.15-.36c-.03.07-.07.14-.12.21l.23-.3c-.06.08-.13.14-.21.2l.3-.23c-.22.16-.45.31-.65.5-.21.2-.39.44-.55.68-.22.31-.42.65-.62.98l2.05-.54c-.15-.11-.31-.21-.46-.33l.3.23-.03-.03.39.66-.02-.05.05.4v-.06c-.02.13-.04.27-.06.4.07-.54.25-1.08.46-1.58l-.15.36c.05-.11.1-.22.17-.32l-.23.3c.06-.08.13-.15.21-.21l-.3.23c.25-.18.53-.34.75-.57.14-.14.27-.3.36-.48.19-.35.21-.54.25-.94.04-.35-.2-.82-.44-1.06-.26-.26-.69-.46-1.06-.44s-.79.14-1.06.44l-.23.3c-.14.23-.2.49-.2.76h0Z"/><path class="c" d="M15.19,54.55c.23.04.46.09.69.14.11.03.21.05.32.09.06.02.12.04.18.06.15.06.12.04-.1-.05.02.05.21.1.25.12.2.1.4.19.61.27.31.12.62.18.96.19.53.03,1.11-.05,1.62-.17.61-.14,1.18-.46,1.59-.93.16-.18.31-.38.46-.57.25-.31.52-.59.62-.98.3-1.14-.7-2.13-1.81-2.1-.55.01-1.12.19-1.66.29-.51.1-1.02.2-1.53.29-.77.15-1.28,1.12-1.05,1.85.27.82,1.02,1.21,1.85,1.05.91-.17,1.81-.36,2.72-.52l-.4.05c.07,0,.14-.01.21,0l-.4-.05-.83-.85v-.8c.32-.51.39-.65.21-.42l-.06.08c-.06.08-.13.16-.19.24-.13.16-.25.33-.4.47-.03.03-.07.06-.1.09.18-.13.22-.17.12-.11-.31.13.2-.05.05-.01-.19.04-.36.09-.55.11l.4-.05c-.33.04-.65.08-.98.05l.4.05s-.35-.11-.37-.1l.19.08c-.06-.03-.11-.05-.17-.08-.27-.13-.54-.26-.83-.36-.39-.15-.81-.22-1.22-.3s-.79-.06-1.16.15c-.31.18-.61.54-.69.9-.17.74.22,1.69,1.05,1.85h0Z"/><path class="c" d="M15.11,54.56c1.93,0,1.93-3,0-3s-1.93,3,0,3h0Z"/><path class="c" d="M13.39,53.54c.18,0,.35,0,.53.03.07,0,.13-.01.19-.04.06-.02.12-.05.16-.1.05-.05.08-.1.1-.16.03-.06.05-.12.04-.19l-.02-.13c-.02-.08-.07-.16-.13-.22l-.1-.08c-.08-.05-.16-.07-.25-.07-.18-.02-.35-.03-.53-.03-.07,0-.13.01-.19.04-.06.02-.12.05-.16.1-.05.05-.08.1-.1.16-.03.06-.05.12-.04.19l.02.13c.02.08.07.16.13.22.1.09.22.15.35.15h0Z"/></g><g id="b"><path d="M16.95,9.07c.14.05.49.26,1.05.63.19,0,.39.11.6.32s.48.39.81.53l.42.49c0,.19-.05.38-.14.56-.24.19-.4.4-.49.63,0,.28-.02.49-.07.63v.42l.14.07-.14.7v2.39c.23.09.49.14.77.14.42-.14.84-.21,1.27-.21.61-.28,1.24-.44,1.9-.49.66-.19,1.17-.28,1.55-.28l.63-.35c.14-.09.28-.16.42-.21l.14-.21.63-.28c.19.05.35.14.49.28l.7.7v.07c.33.14.61.42.84.84v.14c-.52.14-1.36.21-2.53.21-.28.09-.68.14-1.2.14-.61.24-1.22.35-1.83.35l-.49.21c-.75,0-1.22-.02-1.41-.07l-.84.07-.63.21c-.14.14-.28.24-.42.28l.07.77c.28.38.52.77.7,1.2l.35.49c0,.28-.02.52-.07.7l-.07.07c.28.05.52.14.7.28.19.42.41.77.67,1.05.26.28.41.59.46.91l.77.98v.28l.49.42c.61.61,1.12,1.27,1.55,1.97.14.09.4.4.77.91v.07l.49.35c.19.24.59.56,1.2.98l1.76,1.2c.42.19.82.4,1.2.63.14.14.21.31.21.49l-.07.07c-.28,0-.56.05-.84.14l-.63.07-.21.14h-.49c-.61.23-1.38.35-2.32.35-.14-.09-.25-.26-.32-.49s-.2-.47-.39-.7c-.19-.23-.3-.47-.35-.7l-.84-1.62-1.41-2.18c-.05-.14-.28-.54-.7-1.2l-.28-.63c-.05-.23-.14-.42-.28-.56l-.84-1.12-.07-.91c-.24-.14-.4-.35-.49-.63l-.42-.42h-.21c-.19.28-.28.56-.28.84,0,1.31-.02,2.13-.07,2.46.05.84.09,2.72.14,5.62l-.07,2.6.07.14v.63l.07.14c0,.23-.05.44-.14.63l.28,1.05c0,.56-.19,1.05-.56,1.48-.14,0-.26-.05-.35-.14h-.14v.28h-.14c-.28-.14-.45-.38-.49-.7l-.35-1.12c-.19-.28-.31-.61-.35-.98l.07-.42.35-.77.07-.21v-.42l-.07-.63.14-1.62-.07-.63c.14-.52.21-1.03.21-1.55l.14-.77v-.21l-.07-.07.07-.35c0-1.97-.05-3.14-.14-3.52l.14-.35v-.84c-.09-.19-.14-.37-.14-.56h-.07v.14l-.7.42c-.09.14-.14.31-.14.49-.24.24-.42.49-.56.77l-.42.56c-.19.38-.42.68-.7.91h-.07c-.09.24-.25.46-.46.67s-.36.43-.46.67c-.28.14-.47.35-.56.63l-.7.63c-.24.24-.42.47-.56.7l-1.2,1.05c-.14.05-.26.14-.35.28l-.35.35-.28.49c-.47.09-.87.33-1.2.7l-.84.77c-.52.37-1.08.73-1.69,1.05l-.63.7-.14-.21.21-.35c.09-.19.38-.52.84-.98.05-.14.12-.21.21-.21,0-.14.07-.26.21-.35.47-.47.75-.73.84-.77l.91-.98c.38-.23.68-.52.91-.84l.49-.35c.19-.47.47-.73.84-.77.05-.19.14-.37.28-.56.19-.09.38-.21.56-.35.23-.42.49-.77.77-1.05s.52-.6.7-.95c.19-.35.45-.69.77-1.02.47-.61.77-.96.91-1.05l.56-.91c.33-.56.61-1.15.84-1.76l.21-.21.07-.56.07-.07v-.35c-.19-.23-.47-.35-.84-.35-.24.09-.47.14-.7.14l-.14.07c-.42,0-.84.06-1.27.18-.42.12-.89.18-1.41.18l-.14.07c-.33,0-.66.05-.98.14h-.42l-.14.07c-.28,0-.56-.06-.84-.18-.28-.12-.52-.29-.7-.53-.28,0-.52-.09-.7-.28l.14-.42.91-.14.14.07c.42,0,.77-.02,1.05-.07.52,0,.94-.02,1.27-.07l.14-.14.49.07.14-.07h.56l.28-.14c.14.05.47.07.98.07.14-.05.33-.07.56-.07l.35-.14c.19,0,.33.07.42.21h.07c.14-.14.33-.26.56-.35l1.05-.14c.19-.14.28-.33.28-.56l.07-.42c-.05-1.12-.14-2.23-.28-3.3l-.35-1.9c-.24-.42-.35-.91-.35-1.48l.07-.14ZM16.24,0l.84.07.42.35.07.14.84.49.77.56c.05.09.42.33,1.12.7l.14.21c-.05.38-.19.7-.42.98-.33.47-.49,1.01-.49,1.62l-.14.28.07,1.05.21.49c.05.14.14.21.28.21l.77-.07,1.97-.28.14-.07c.42,0,.84-.05,1.27-.14l1.12-.35c.38,0,.94-.09,1.69-.28.09-.14.4-.4.91-.77l.21-.14c.14-.23.35-.35.63-.35l.63.56c.28.56.66,1.08,1.12,1.55.09.19.14.4.14.63-.28.14-.57.25-.88.32s-.6.18-.88.32l-.56.35c-.19.28-.73.75-1.62,1.41-.23.09-.4.26-.49.49h-.35c-.05.19-.07.42-.07.7-.09.19-.26.28-.49.28l-.14-.14.35-.91c.09-.14.23-.26.42-.35.19-.89.28-1.41.28-1.55l.07-.07-.07-.49-.35.07-.56-.14c-.28.05-.68.07-1.2.07-.47.09-.75.17-.84.21h-.77l-.07.07-1.2.07-.14.21-.35-.14h-.84l-.21.14h-.42l-.28.21c-.98,0-1.62.07-1.9.21h-.63l-.35.14-.49-.07-.14.21-.77-.07-.7.21h-.56c-.42.19-.87.31-1.34.35-.28.14-.56.21-.84.21-.19.14-.45.68-.77,1.62-.28.33-.54.7-.77,1.12-.56.52-.93.91-1.09,1.2-.17.28-.36.47-.6.56-.19,0-.33-.11-.42-.32-.09-.21-.14-.64-.14-1.3.14-.61.47-.98.98-1.12.14-.05.45-.3.91-.77.19-.56.52-1.01.98-1.34.23-.66.4-1.03.49-1.12,0-.61-.02-1.03-.07-1.27v-.21c-.19-.33-.28-.68-.28-1.05-.24-.42-.35-.87-.35-1.34l.07-.07c.19.14.33.31.42.49.61.89.98,1.64,1.12,2.25l.07.07-.07.63.63.49h.77l.21-.14c.66,0,1.31-.07,1.97-.21,1.41-.23,2.18-.35,2.32-.35l.63-.28.14-.7-.07-.63v-1.41l.07-1.27c-.14-.23-.21-.47-.21-.7-.28-.61-.7-1.08-1.27-1.41-.09-.19-.21-.37-.35-.56l-.28-.07v-.07c-.14-.05-.24-.12-.28-.21l.28-.28Z"/><path d="M17.44,46.01l.14-.35h.42l.35.35.84.49.63.42.42.56v.7l-.35.28v.56l.14.28.49.35.42.42.14.07h.91l1.05-.21.56-.21h1.62l.77-.14.7-.49.28-.07h.7l.42.28.49.63.07.49-.07.14h-.21v.21l-.91.07h-2.67l-1.34.35-.14.56.56.7.07.42-.28.42-1.27.63-.49.56-.56.28-.42.21v.63l1.05.56,1.05.28.84.42.7.28.35.7.35.91h1.55l1.97-.49h.56l.42.28.28.63-.07.7-.21.21-2.04.14-.84.07h-1.55l-.91.35-.84.21-.28.07.14.42.49,1.05.21.49.56.56v.63l-.35.35-1.12.28-.91.56-.7.49-.7.42-.63.42-.49.07-.14.28-.91.49-.63.42-1.41.63-.91.63-.91.35-.49.28-.49-.14-.28-.07.07-.49.77-.7.84-.49.91-.42.84-.49.77-.56.84-.42.42-.28.49-.21.21-.42.49-.35.63-.56.63-.49.63-.91.49-1.41.07-.28-.49-.14h-1.76l-1.34.28-1.2.14-1.76.28-1.69.35-.98.21h-.28l-.14.35-.07.28-.28,3.3-.42,3.09-.35,1.2-.35,1.34-.49,1.97-.42,1.12-.21,1.12-.42.42-.28.28h-.14l-.21.42-.28.35-.35.77-.56.91-.49.63h-.21l-.14.28-.49.63-.91,1.2-.56.28-.28-.07-.28-.21.07-.42.63-1.2.7-.84.42-.91.77-1.12.28-.77.49-.7.91-1.76.21-.56.14-.84.14-.28.42-2.25.28-.63.28-1.27.28-3.38v-2.18l-.42-.35-.42-.28-1.05-.77-.07-.28-.35-.21-.07-.21,1.12-.28.42-.35v-.14h.21v-.21l.7-.28.42-.28,1.27-.49.84-.49.56-.42.63-.21.28-.21v-.14l1.55-.7.49-.14v-.77l-2.11-.77-.56-.14v-.14l-.42-.21-.42-.35v-.14l-.35-.07-.14-.21-1.9-.07-1.27-.42-.21-.21v-.42l.42-.35.63-.21,2.88-.14,1.69-.28,1.2-.21.49-.21.56-.21.42-.28.56-.77-.28-.98-.42-1.41-.56-.84.14-.49ZM25.8,72.17l.35-.42h.7l.42.49.28.63.63.84.07.49-.28.42-.42.14-1.27.21-.98.42-1.2.77-.84.42-.77.42-.84.56-1.62.84-1.62.7-.7.35-.63.42-.98.21-.49.35-.84.28-.84.35-1.2.21-.63.35-1.34.28-1.2.49-.42.07h-.56l-.28-.28.07-.28.42-.28.91-.28,1.05-.28.77-.14,1.27-.56.77-.28.91-.49,1.55-.84.98-.49.91-.35.91-.49.42-.35,1.9-1.05.84-.56,1.2-.7.7-.56.7-.49.42-.35.42-.42.35-.77ZM23.77,66.68l.14-.07.56.07.49.84.42.84.07.42-.14.42-.35.35-.84.35-.84.56-.63.35-1.05.84-1.2.77-.98.56-.35.28-.84.35-.77.42-.49.28-.91.35-.56.28-.7.14-.42.28-.56.14-.42.28h-.7l-.21-.21.63-.49.84-.42.7-.42,1.05-.49.91-.7,1.27-.84.35-.14v-.14l.77-.42.42-.35.49-.28.77-.49.7-.56.49-.42h.14v-.21l.7-.63.42-.63.63-1.27ZM21.59,51.29h-1.05l-1.41.35-1.12.21-1.69.21-.49.21-.35.28-1.48.07-.7.28-.21.21.21.28,1.34.14.84.42,1.05.21.49.35h.28v.14l.63.35,1.27-.21.7-.49.42-.21v-.21l.42-.14.63-.63.49-.63.07-.35v-.56l-.35-.28ZM19.97,56.63l-.91-.21-1.12.35-.77.42-.28.35-.7.35-.7.42-.98.42-.91.49-.35.42-.07.49.42.35h1.48l2.11-.42,2.95-.14,1.12-.28,1.05-.07.98-.35.07-.49-.28-.42-.7-.42-.77-.42-.35-.28-.91-.28-.35-.28Z"/><path d="M12.52,91.39l.49-.28.84.07.49.21.42.7.7.98.14.21-.07.35-.77.28-.49.42-.49.98-.28.56.07.77h1.48v-.14l2.11-.42.7-.28h1.12l.77.49.49.14.42-.42h.21l.07-.56.7-1.27.28-1.12-.07-.84-.21-.42.07-.42.14-.07h.49l.77.35.28.28v.14l.35.14.42.42-.14.49-.84.98-.42.77-.07.56.21.35.21.07.49-.14,1.69-.14,1.9-.42,1.27-.56h.63l.49.35.07,1.05-.14.28-.56.21h-.84l-2.11.14-.56.28v.56l.21.42.49.77.21.42v.77l-.49.35-1.12.14-.84.42-.42.42h-.14l-.21.42-.56.7-.07.28-.42.28-.28.42-.28.77-.56.7-.28.21-.49,1.62.07.42.35.35h.63l1.55-.56,1.27-.35.77-.28.91-.35,1.05-.56.35-.49.7-.07.21.07.35.42.49.84.35.42.14.49v.49l-.56.77-.28,1.41-.14,1.9-.14,1.34-.21,3.3-.07.77-.07,2.53-.28.91-.21,1.76-.63,2.95-.7,1.27-.49.56-.42.7-.35.14-.56-.07-.42-.35-.7-1.2-.42-.84v-.21h-.14l-.7-.84-.91-.63-.7-.42v-.21h-.14l-.07-.14v-.49l.21-.21h.63l.49.35.35.42.84.49.49.42.91.56.21.07h.49l.35-.07.14-.56.35-.84.42-1.34.35-1.9.07-.21.21-2.04.21-1.27.07-1.48.14-1.2.21-2.04v-1.05l-.07-1.83-.35-.77-.42-.14h-.7l-2.67.77-.7.21-1.05.28-.77.35-1.34.21-.7.42h-.14v.21l-.42.21-.56.49-.28.7-.28.42-.42.42-.14.14.14.84h1.41l2.11-.56,1.48-.42.98-.35.7-.56h.14l.21-.35.91-.07.63.56v.63l-.21.21-1.55.49-.63.28-1.41.7-1.41.42-.84.42-1.12.07-.84.07h-.28l-.21-.21-.21-.91-.91-.21-.14-.07.07-.56.35-.14.14-.7.63-.84.49-.91.07-.14v-.84l-.07-.35-.84-.07-1.34.35-.98.14-.42.14-.14.56v4.57l.14.98.28.28h.49l1.27-.63.91-.28.42.07v.42l-.84.49-.49.42-.14.07-.21.35-.63.35-.49.56-.7.63-.56.28h-.21v.21l-.42.14-.14.35-.63.7-1.12,1.27-.56.28-1.27.14-1.48-.21-.49-.35-.21-.49v-.42l.63-.49.91-.14.91-.56.7-.21.49-.21.91-.7.42-.28h.14l.28-.84.14-.7v-5.06l-.21-.98-.42-.21-1.48.42-.56.28h-.84l-.56-.28-.7-.49-.42-.42v-.49l.14-.21h1.69l2.32-.14.84-.42.21-.28.28-.63v-1.34l-.42-1.97-.14-.42v-.56l.21-.14.42.14.77.21.84.21.28.28v.63l-.28.63-.07,1.27v.84l.14.42.49.21.77-.07.7-.35.63-.07,1.34.7.35.14.21-.63.28-1.41.21-.77.21-.42.14-1.12.07-.14v-.56l-.49-1.05-.21-.21h-.63l-.21.14-.42.56-.28.14h-.56l-.21-.21.07-.49.77-.42.42-.56.35-.07.14-.35.35-.49h.21l.14-.42.77-.84.42-.98-.28-.49h-.84l-1.48.21-1.41.28-1.12.14-.63.42-.07.49.07.28.35.14.42.42.14.35.28.07.42.63v.91l-.35.84-.35.35-.56-.07-.28-.56-.14-.84-.42-.84-.42-.49-.28-.56-.42-.28h-1.27v-.77l.42-.98.42-1.12.7-2.32.21-.63-.14-1.34-.07-.63ZM10.41,99.69l.28-.28h.42l.14.49-.42.77-.42.28-.35.77-.28.35h-.14l-.21.35-.21.21-.21.56-.42.14-.14-.28.14-.42.35-.42h.21l.07-.56.56-.7.21-.49.42-.77ZM25.1,116.21l.21-.07h.35l.07.42-.42.56-.84.56-.49.28-.63.35-.42.35-.7.56-.49.28h-.21v.14h-.21v.21l-1.2.91-.49.28h-1.48l-.84-.14-.7-.07-.21-.14-.07-.42.28-.42,1.12-.21,1.41-.63.91-.42,1.34-.42.84-.42.77-.35h.14v-.14l1.27-.7.7-.35ZM22.71,97.3h-.91l-.56.07-.84.77-.63.63-.21.77-.35.7-.07.7.21.56.91.98.56.28h.7l.77-1.55.7-.91.35-.35.56-.91.07-.07v-.77l-.21-.49-.42-.35-.63-.07Z"/><path class="c" d="M36.27,94.28c-.14-.09-.38-.27-.37-.6,0-.27.12-.59.36-.72-.13-.17-.35-.5-.35-.93,0-.53.3-1.12,1.13-1.11.94,0,2.1.72,2.09,1.9,0,.16-.03.41-.23.64l1.52.38c0-.08.02-.21.02-.29,0-.06,0-.19.13-.19.2,0,.2.14.21.22l.04.86c0,.1.01.22-.12.22-.04,0-.08-.01-.11-.02l-3.9-1.01c-.11-.03-.17-.04-.3-.04-.16,0-.22.05-.22.13,0,.24.52.37.75.43.17.05.18.06.18.23,0,.1,0,.2-.1.19-.03,0-.42-.09-.71-.28ZM36.79,92.9l1.65.43c.28-.08.44-.27.44-.52,0-.18-.1-.57-.78-.81-.2-.08-1.05-.33-1.43-.33-.4,0-.5.23-.5.39,0,.22.1.51.5.82.06,0,.08,0,.12.02Z"/><path class="c" d="M36.02,98.11c-.13-.36-.15-.77-.14-.99,0-.88.48-1.34,1.24-1.33,1.08,0,1.99.85,1.98,2.06,0,.52-.26.91-.68.9-.97,0-.96-1.4-.95-1.82v-.28c-.23-.06-.51-.12-.68-.12-.41,0-.64.2-.65.59,0,.1,0,.81.57,1.33.05.05.05.08.05.1,0,.07-.17.21-.22.21-.08,0-.36-.28-.5-.66ZM38.83,97.85c0-.24-.11-.55-.34-.75-.22-.21-.43-.28-.78-.38,0,.43-.01,1.57.71,1.58.22,0,.42-.16.42-.45Z"/><path class="c" d="M36.2,103.05c-.14-.09-.38-.27-.37-.6,0-.27.12-.59.36-.72-.13-.17-.35-.5-.35-.93,0-.53.3-1.12,1.13-1.11.94,0,2.1.72,2.09,1.9,0,.18-.04.45-.27.68.09.09.15.21.14.33,0,.2-.14.31-.3.31-.03,0-.04,0-.15-.03l-1.89-.49c-.11-.03-.17-.04-.3-.04-.16,0-.22.05-.22.13,0,.24.52.37.75.43.17.05.18.06.18.23,0,.1,0,.2-.1.2-.03,0-.42-.1-.71-.28ZM36.71,101.68l1.65.43c.28-.08.44-.27.44-.51,0-.18-.1-.57-.78-.81-.2-.08-1.05-.33-1.43-.33-.4,0-.5.23-.5.39,0,.22.1.51.5.82.06,0,.08,0,.12.02Z"/><path class="c" d="M37.84,107.3c0-.22.15-.35.33-.35.03,0,.32,0,.47.33.11-.14.12-.31.12-.38,0-.49-.52-.81-.68-.85l-1.9-.49c-.36-.09-.37-.4-.37-.44,0-.15.09-.31.3-.31.04,0,.05,0,.15.03l1.99.51c.11.03.17.04.3.04.16,0,.22-.05.22-.13,0-.24-.52-.37-.75-.43-.17-.05-.18-.06-.18-.23,0-.11,0-.2.1-.2.03,0,.42.09.71.28.14.09.38.27.37.6,0,.34-.17.62-.39.74.3.3.37.63.37.9,0,.51-.26.89-.63.88-.31,0-.54-.24-.53-.51Z"/><path class="c" d="M35.91,110.76c-.13-.36-.15-.77-.14-.99,0-.88.48-1.34,1.24-1.33,1.08,0,1.99.85,1.98,2.06,0,.52-.26.91-.68.9-.97,0-.96-1.4-.95-1.82v-.28c-.23-.06-.51-.12-.68-.12-.41,0-.65.2-.65.59,0,.1,0,.81.57,1.33.05.05.05.08.05.1,0,.07-.17.21-.22.21-.08,0-.35-.28-.5-.66ZM38.72,110.5c0-.24-.11-.55-.34-.75-.22-.21-.43-.28-.78-.38,0,.43-.01,1.57.71,1.58.22,0,.42-.16.42-.45Z"/><path class="c" d="M36.09,115.7c-.14-.09-.38-.27-.37-.6,0-.27.12-.59.36-.72-.13-.17-.35-.5-.35-.93,0-.53.3-1.12,1.13-1.11.94,0,2.1.72,2.08,1.9,0,.18-.04.45-.27.68.09.09.15.21.14.33,0,.2-.13.31-.3.31-.03,0-.04,0-.15-.03l-1.89-.49c-.11-.03-.17-.04-.3-.04-.16,0-.22.05-.22.13,0,.24.52.37.75.43.17.05.18.06.18.23,0,.1,0,.2-.1.2-.03,0-.42-.1-.71-.28ZM36.6,114.33l1.65.43c.28-.08.44-.27.44-.51,0-.18-.1-.57-.78-.81-.2-.08-1.06-.33-1.43-.33-.4,0-.5.23-.5.39,0,.22.1.51.5.82.06,0,.08,0,.12.02Z"/><path class="c" d="M36.06,118.55c-.14-.09-.38-.27-.37-.6,0-.39.24-.81.69-.81.04,0,.09,0,.2.03l3.63.94c0-.08.02-.21.02-.29,0-.06,0-.19.13-.19.2,0,.2.14.21.22l.03.86c0,.1.01.22-.12.22-.04,0-.08-.02-.11-.02l-3.9-1.01c-.11-.03-.17-.04-.3-.04-.16,0-.22.05-.22.13,0,.24.52.37.75.43.18.05.18.06.18.23,0,.11,0,.2-.1.2-.03,0-.42-.09-.71-.28Z"/><path class="c" d="M35.81,122.39c-.13-.36-.15-.77-.14-.99,0-.88.48-1.34,1.24-1.33,1.08,0,1.99.85,1.98,2.06,0,.52-.26.91-.68.9-.97,0-.95-1.4-.95-1.82v-.28c-.23-.06-.51-.12-.68-.12-.41,0-.65.2-.65.59,0,.1,0,.81.57,1.33.05.05.05.08.05.1,0,.07-.17.21-.22.21-.08,0-.36-.28-.5-.66ZM38.62,122.12c0-.24-.11-.55-.34-.75-.22-.21-.43-.28-.78-.38,0,.43-.01,1.57.71,1.58.22,0,.42-.16.42-.45Z"/><path class="c" d="M35.63,125.37c0-.83.47-1.33,1.19-1.32.88,0,2.04.72,2.03,2.11,0,.83-.47,1.33-1.19,1.32-.88,0-2.04-.72-2.03-2.1ZM37.97,126.72c.5,0,.62-.33.62-.58,0-.36-.23-.75-.67-.96-.37-.18-1.15-.37-1.42-.37-.5,0-.62.33-.62.58,0,.36.22.75.66.96.37.18,1.15.37,1.43.37Z"/></g></svg>